<svg xmlns="http://www.w3.org/2000/svg" viewBox="0 0 200 200">
    <style>
        path {
            fill: #004e48;
        }
        @media (prefers-color-scheme: dark) {
            path {
                fill: #ffffff;
            }
        }
    </style>
    <path
        d="M147.3 80.6288C147.3 86.5669 142.441 91.442 136.487 91.442H130.002C124.064 91.442 119.189 86.5669 119.189 80.6288V74.159C119.189 68.2208 124.049 63.3457 130.002 63.3457H136.487C142.425 63.3457 147.3 68.2208 147.3 74.159V80.6288ZM114.056 159.192C114.056 165.13 109.181 170.005 103.242 170.005H96.7575C90.8193 170.005 85.9443 165.145 85.9443 159.192V152.707C85.9443 146.769 90.8042 141.894 96.7575 141.894H103.242C109.181 141.894 114.056 146.754 114.056 152.707V159.192ZM114.056 125.947C114.056 131.885 109.181 136.761 103.242 136.761H96.7575C90.8193 136.761 85.9443 131.885 85.9443 125.947V91.3661H63.4976C57.5594 91.3661 52.6843 86.491 52.6843 80.5528V74.0831C52.6843 68.1449 57.5442 63.2698 63.4976 63.2698H103.242C109.181 63.2698 114.056 68.1449 114.056 74.0831V80.5528V119.462V125.947ZM114.056 47.3081C114.056 53.2463 109.181 58.1213 103.242 58.1213H96.7575C90.8193 58.1213 85.9443 53.2614 85.9443 47.3081V40.8231C85.9443 34.885 90.8042 30.0099 96.7575 30.0099H103.242C109.181 30.0099 114.056 34.8698 114.056 40.8231V47.3081ZM200 100.008C200 44.7718 155.228 0 99.9924 0C44.7566 0 0 44.7718 0 99.9924C0 155.213 44.7718 199.985 99.9924 199.985C155.213 199.985 199.985 155.213 199.985 99.9924"
    />
</svg>